<?xml version="1.0" encoding="UTF-8"?>
<svg width="73px" height="17px" viewBox="0 0 73 17" version="1.1" xmlns="http://www.w3.org/2000/svg" xmlns:xlink="http://www.w3.org/1999/xlink">
    <!-- Generator: sketchtool 52 (66869) - http://www.bohemiancoding.com/sketch -->
    <title>475B3171-8FB2-40A5-A3E0-8DF71A19E7D6</title>
    <desc>Created with sketchtool.</desc>
    <g id="Design" stroke="none" stroke-width="1" fill="none" fill-rule="evenodd">
        <g id="Revix-Website-Desktop-Home" transform="translate(-230.000000, -28.000000)" fill="#1135C4">
            <g id="Group-21" transform="translate(198.000000, 0.000000)">
                <path d="M47.2931692,34.6636959 C47.7805839,32.6805709 49.2095361,31.6736494 51.4504993,31.6736494 C53.6586907,31.6736494 55.1209348,32.8758116 55.283233,34.6636959 L47.2931692,34.6636959 Z M59.5378379,36.5817408 C59.5378379,37.2315019 59.4722944,37.8823043 59.4722944,37.8823043 L47.2291863,37.8823043 C47.6182858,40.0268284 49.0155065,41.1649516 51.3204527,41.1649516 C53.0750415,41.1649516 54.4863073,40.3100576 55.0387453,39.3458287 L58.7585986,41.0347911 C57.1012846,43.7332782 54.6329999,45 51.223698,45 C46.31886,45 42.8122832,41.3919515 42.8122832,36.4515803 C42.8122832,31.5424476 46.4171753,28 51.483271,28 C56.2897937,28 59.5378379,31.4784087 59.5378379,36.5817408 Z M69.666284,38.8323717 L73.7299805,28.5788497 L78.5604318,28.5788497 L71.8645919,44.4063641 L66.9592338,44.4063641 L60.2311424,28.5788497 L65.2212909,28.5788497 L69.1351737,38.8323717 L69.4020293,40.2011393 L69.666284,38.8323717 Z M80.9427816,44.4065723 L80.9427816,28.5790579 L85.2951816,28.5790579 L85.2951816,44.4065723 L80.9427816,44.4065723 Z M98.9673978,36.4188319 L105,44.4065203 L99.8121806,44.4065203 L96.3056038,39.57236 L92.7974665,44.4065203 L87.6413785,44.4065203 L93.6417291,36.4188319 L87.9467279,28.5790059 L93.1017755,28.5790059 L96.3056038,33.233024 L99.5078716,28.5790059 L104.661879,28.5790059 L98.9673978,36.4188319 Z M32,44.6438289 L32,28.4555096 L42.6409338,28.4555096 L41.0387596,32.3171107 L36.3326329,32.312425 L36.3326329,44.6438289 L32,44.6438289 Z" id="Combined-Shape-Copy-3"></path>
            </g>
        </g>
    </g>
</svg>